<?xml version="1.0" standalone="no"?>
<!DOCTYPE svg PUBLIC "-//W3C//DTD SVG 20010904//EN"
 "http://www.w3.org/TR/2001/REC-SVG-20010904/DTD/svg10.dtd">
<svg version="1.0" xmlns="http://www.w3.org/2000/svg"
 width="1024.000000pt" height="1024.000000pt" viewBox="0 0 1024.000000 1024.000000"
 preserveAspectRatio="xMidYMid meet">
<metadata>
Created by potrace 1.16, written by Peter Selinger 2001-2019
</metadata>
<g transform="translate(0.000000,1024.000000) scale(0.100000,-0.100000)"
>
<path d="M5480 8901 c-299 -65 -526 -192 -730 -407 -220 -231 -350 -536 -366
-861 -26 -510 226 -978 671 -1244 122 -74 320 -148 438 -165 26 -3 49 -10 52
-14 5 -8 -33 -586 -40 -607 -3 -9 -24 -13 -61 -13 -234 0 -463 -180 -536 -422
-14 -46 -25 -54 -98 -62 -30 -4 -77 -11 -105 -16 -27 -5 -99 -16 -160 -25 -60
-9 -166 -26 -233 -37 -68 -11 -126 -18 -128 -15 -3 2 -16 50 -29 106 -158 653
-674 1189 -1326 1376 -792 228 -1648 -80 -2108 -760 -147 -217 -228 -403 -286
-655 -38 -165 -48 -285 -42 -485 6 -183 19 -276 63 -442 159 -602 638 -1108
1234 -1307 184 -61 331 -87 541 -93 263 -8 451 18 679 94 588 196 1056 687
1229 1288 47 165 63 275 67 480 3 110 8 203 12 207 8 7 662 131 667 126 1 -1
10 -32 19 -67 30 -117 91 -218 181 -298 63 -56 122 -89 215 -119 l65 -21 -2
-69 c-1 -78 -6 -129 -63 -709 -22 -231 -44 -440 -48 -465 l-7 -45 -65 -7
c-295 -32 -542 -232 -635 -513 -37 -109 -45 -269 -20 -380 60 -271 244 -473
510 -562 69 -23 97 -27 210 -27 147 -1 214 13 330 68 151 72 272 191 346 341
51 104 67 167 75 290 12 179 -48 368 -160 507 -93 116 -244 216 -381 252 -31
8 -59 16 -61 19 -2 2 0 69 6 148 6 79 15 207 20 284 39 575 61 850 68 856 4 3
38 11 76 18 65 11 176 57 238 97 15 10 29 16 31 14 11 -15 357 -561 357 -565
0 -2 -23 -28 -50 -56 -110 -115 -160 -285 -127 -434 23 -105 61 -177 134 -251
97 -99 209 -146 349 -145 142 1 250 45 349 145 130 130 177 328 119 501 -44
131 -154 248 -284 302 -59 25 -77 27 -185 27 -103 0 -127 -3 -169 -22 -27 -12
-54 -22 -60 -22 -10 0 -359 505 -380 550 -6 14 -1 29 23 59 52 65 98 163 116
247 10 44 19 80 20 82 1 2 157 -29 346 -67 189 -38 515 -104 724 -146 209 -42
384 -81 390 -86 5 -5 8 -42 6 -82 -9 -216 68 -484 193 -672 174 -261 420 -428
746 -507 75 -18 363 -17 455 1 467 94 843 474 924 935 16 88 14 348 -4 436
-91 470 -471 843 -944 925 -109 19 -307 19 -410 0 -422 -80 -749 -365 -901
-782 -12 -35 -26 -63 -30 -63 -5 0 -156 25 -337 56 -180 31 -353 60 -383 64
-264 40 -776 132 -786 141 -8 6 -14 20 -14 29 0 28 -37 109 -82 179 -50 76
-138 150 -235 197 -58 28 -73 40 -73 57 0 29 50 556 55 583 4 19 14 22 117 28
362 21 655 151 903 401 205 204 331 445 381 725 23 126 23 344 0 470 -96 534
-493 955 -1028 1091 -122 31 -455 37 -578 10z m199 -787 c190 -114 456 -272
591 -352 135 -80 253 -153 263 -162 18 -16 17 -18 -25 -42 -47 -27 -424 -241
-887 -502 -161 -91 -300 -166 -309 -166 -13 0 -14 41 -9 368 4 202 7 523 7
715 0 246 3 347 11 347 6 0 167 -93 358 -206z m2946 -3534 l0 -585 -130 0
-130 0 3 580 c2 319 6 583 9 588 2 4 59 6 126 5 l122 -3 0 -585z m380 0 l0
-585 -130 0 -130 0 3 580 c2 319 6 584 9 588 2 4 59 6 126 5 l122 -3 0 -585z"/>
</g>
</svg>
